<svg id="visual" viewBox="0 0 960 300" width="960" height="300" xmlns="http://www.w3.org/2000/svg" xmlns:xlink="http://www.w3.org/1999/xlink" version="1.1"><rect x="0" y="0" width="960" height="300" fill="#2a2d6e"></rect><path d="M0 126L22.8 129.5C45.7 133 91.3 140 137 145.7C182.7 151.3 228.3 155.7 274 158.5C319.7 161.3 365.3 162.7 411.2 155.8C457 149 503 134 548.8 129.2C594.7 124.3 640.3 129.7 686 135C731.7 140.3 777.3 145.7 823 152.2C868.7 158.7 914.3 166.3 937.2 170.2L960 174L960 0L937.2 0C914.3 0 868.7 0 823 0C777.3 0 731.7 0 686 0C640.3 0 594.7 0 548.8 0C503 0 457 0 411.2 0C365.3 0 319.7 0 274 0C228.3 0 182.7 0 137 0C91.3 0 45.7 0 22.8 0L0 0Z" fill="#5c626a"></path><path d="M0 73L22.8 72.5C45.7 72 91.3 71 137 71.2C182.7 71.3 228.3 72.7 274 76.3C319.7 80 365.3 86 411.2 91.5C457 97 503 102 548.8 99.5C594.7 97 640.3 87 686 83.7C731.7 80.3 777.3 83.7 823 89.7C868.7 95.7 914.3 104.3 937.2 108.7L960 113L960 0L937.2 0C914.3 0 868.7 0 823 0C777.3 0 731.7 0 686 0C640.3 0 594.7 0 548.8 0C503 0 457 0 411.2 0C365.3 0 319.7 0 274 0C228.3 0 182.7 0 137 0C91.3 0 45.7 0 22.8 0L0 0Z" fill="#393e46"></path><path d="M0 73L22.8 65.3C45.7 57.7 91.3 42.3 137 35C182.7 27.7 228.3 28.3 274 35.7C319.7 43 365.3 57 411.2 58.3C457 59.7 503 48.3 548.8 45.7C594.7 43 640.3 49 686 55.3C731.7 61.7 777.3 68.3 823 69.7C868.7 71 914.3 67 937.2 65L960 63L960 0L937.2 0C914.3 0 868.7 0 823 0C777.3 0 731.7 0 686 0C640.3 0 594.7 0 548.8 0C503 0 457 0 411.2 0C365.3 0 319.7 0 274 0C228.3 0 182.7 0 137 0C91.3 0 45.7 0 22.8 0L0 0Z" fill="#2b2e34"></path></svg>