<svg id="visual" viewBox="0 0 960 300" width="960" height="300" xmlns="http://www.w3.org/2000/svg" xmlns:xlink="http://www.w3.org/1999/xlink" version="1.1"><path d="M0 43L120 31L240 40L360 25L480 43L600 31L720 34L840 46L960 28L960 0L840 0L720 0L600 0L480 0L360 0L240 0L120 0L0 0Z" fill="#2a2d6e"></path><path d="M0 88L120 52L240 88L360 73L480 67L600 64L720 64L840 67L960 49L960 26L840 44L720 32L600 29L480 41L360 23L240 38L120 29L0 41Z" fill="#2c4a90"></path><path d="M0 172L120 157L240 136L360 175L480 145L600 127L720 121L840 178L960 145L960 47L840 65L720 62L600 62L480 65L360 71L240 86L120 50L0 86Z" fill="#2968b2"></path><path d="M0 265L120 241L240 256L360 253L480 241L600 241L720 235L840 235L960 259L960 143L840 176L720 119L600 125L480 143L360 173L240 134L120 155L0 170Z" fill="#1e87d3"></path><path d="M0 301L120 301L240 301L360 301L480 301L600 301L720 301L840 301L960 301L960 257L840 233L720 233L600 239L480 239L360 251L240 254L120 239L0 263Z" fill="#00a8f3"></path></svg>